<svg width="35" height="35" viewBox="0 0 35 35" fill="none" xmlns="http://www.w3.org/2000/svg">
<g clip-path="url(#clip0_208_212)">
<path d="M14.6932 20.2581L14.4254 19.9277L13.5428 19.6872C12.6748 20.6638 13.478 21.6696 14.5342 21.0736C14.5844 21.7448 14.5677 22.322 15.1136 22.7945C14.6764 23.4093 14.348 23.1312 13.9381 23.2044C13.8252 23.2253 13.7478 23.4114 13.6913 23.4051C13.593 23.3947 13.1663 22.5603 12.7208 22.5499L13.2144 22.1463L13.8858 22.9702C14.4422 22.3763 14.553 21.8578 13.9046 21.3099L13.5742 21.5776L12.6037 20.7223C12.2398 20.6868 11.4241 22.5039 12.4217 22.5164C11.9741 22.8155 12.0808 23.2316 12.4657 23.5787C11.6918 23.5494 11.8047 24.3231 11.2295 24.5866C10.9639 24.7079 10.5728 24.3796 10.4452 24.1286L11.2609 24.2876C11.5851 23.7104 12.2356 22.9033 11.4596 22.3429C11.0078 22.0167 10.1064 22.9409 10.2904 23.4323L8.92884 23.4449L8.65067 23.9446C8.87028 24.1412 9.04388 24.5364 9.25512 24.6869C9.60232 24.9337 10.1378 24.2102 10.5498 24.5928L9.7571 24.9651L10.0248 25.2954C9.1359 25.9353 9.51448 27.0373 10.6878 26.9495L11.3258 25.8809L10.4891 25.1909C10.897 24.7476 10.8614 25.0215 11.1543 25.3352C11.5621 25.7701 11.6207 25.9395 12.3046 25.906L11.7754 24.4172C12.4698 24.1495 12.1854 24.7099 12.4113 24.8605C12.6079 24.9922 12.999 24.7079 13.0429 25.1783L13.4529 24.7685C13.4633 24.7246 13.4738 24.6869 13.4905 24.6681C13.6829 24.4151 14.0259 24.3503 14.0971 23.8986C14.1284 23.953 14.1577 23.9969 14.187 24.0345L16.7429 21.4793L16.6969 21.3705C16.1719 20.9983 15.557 21.3392 15.1951 20.5383C14.9922 20.7871 14.7622 20.8917 14.6639 20.5592C14.6367 20.4672 14.7266 20.3376 14.6952 20.2602L14.6932 20.2581Z" fill="#0F0F0F"/>
<path d="M16.0966 12.8746L16.1196 12.9269L15.6866 12.7324C15.4879 12.9248 15.2119 13.0712 15.0278 13.2698C15.147 13.4705 14.9839 13.7152 15.2662 13.8992C14.4819 14.0351 13.9193 14.5453 13.9841 15.3546C14.4171 15.3023 14.689 16.122 15.1345 15.9254C15.3959 15.8104 15.4357 14.9928 15.7724 14.8569L15.2349 14.1982L16.3497 14.3885L16.7931 13.7528L16.2555 13.0942C16.266 13.0816 16.2744 13.0732 16.2848 13.0628L16.1008 12.8788L16.0966 12.8746Z" fill="#0F0F0F"/>
<path d="M13.3148 13.0189C12.6455 13.3932 12.7919 13.6859 12.8798 14.3341C13.1119 14.3237 13.4215 14.4408 13.6285 14.4094C13.6808 14.4011 13.7227 14.2944 13.7938 14.2756C13.8921 14.2505 14.0238 14.3404 14.0929 14.307C14.2497 14.2275 14.6304 13.9118 14.7517 13.7696C14.7747 13.7424 14.7705 13.5479 15.0299 13.2698C14.9776 13.182 14.8814 13.1151 14.8291 13.0231L13.319 13.0189H13.3148Z" fill="#0F0F0F"/>
<path d="M25.7093 12.2431C25.5441 12.2264 24.8706 12.8014 24.9459 13.2782L25.8202 12.4041C25.7742 12.333 25.7449 12.2473 25.7093 12.2431Z" fill="#0F0F0F"/>
<path d="M28.2192 9.10025C27.9076 9.43481 27.9891 9.76938 28.2359 9.98685L29.3131 8.90996C28.9826 8.56285 28.6229 8.66322 28.2192 9.10025Z" fill="#0F0F0F"/>
<path d="M10.8572 7.63443C10.8865 8.23456 11.1271 8.95597 10.989 9.15462L10.6585 9.42228L9.6797 9.39719C9.87839 9.02916 10.4243 9.14417 10.5561 8.95807C10.761 8.66741 10.441 8.06519 10.0332 8.14883L9.99552 7.76826C9.56675 8.25547 8.97275 8.18856 8.54399 8.67786L8.48333 9.2759C8.19051 9.07726 8.41849 8.79914 8.16332 8.71341C7.96881 8.64859 7.51703 8.70714 7.41455 8.63813C7.23886 8.51476 6.79336 7.57379 6.56329 8.09864C6.20563 8.91206 7.03598 9.74221 7.82449 9.8133C7.38108 10.0454 7.31834 10.3904 7.43756 10.6706L7.85168 11.0847C8.08594 11.185 8.35993 11.1495 8.54817 10.8714C8.56908 10.84 8.6402 10.1604 8.62346 10.1228C8.54189 9.91995 8.11522 9.77567 8.45196 9.57702C8.65275 10.2524 9.35132 10.0977 9.52074 10.2148C9.63159 10.2922 9.67761 10.4657 9.78846 10.5452C9.82192 10.5682 10.441 10.6351 10.5372 10.6225C10.5895 10.6142 10.6314 10.5075 10.7025 10.4887C10.8008 10.4636 10.9325 10.5535 11.0016 10.5201C11.1856 10.4281 11.6813 10.0161 11.8256 9.84885C11.8758 9.79239 11.8089 9.63766 11.857 9.54983C11.9156 9.4411 12.0996 9.40137 12.1038 9.34909C12.1101 9.29263 11.9218 9.21526 11.903 9.10235C11.8758 8.93715 11.8967 8.81796 11.9448 8.72596L10.8593 7.6407L10.8572 7.63443Z" fill="#0F0F0F"/>
<path d="M6.92514 27.5475L7.58397 27.0101C7.25769 26.7194 7.57352 26.3807 7.11338 26.433L6.20983 25.6614C5.87936 25.8245 5.96302 26.0294 5.91701 26.3117C5.81871 26.8993 5.87309 26.8721 6.191 27.3217C6.47336 27.1753 6.78709 27.2819 6.92304 27.5475H6.92514Z" fill="#0F0F0F"/>
<path d="M7.14474 26.136C7.88097 26.3347 7.99182 25.7011 8.36621 25.2787L8.53772 25.8245L9.28649 25.9018L9.52702 25.0194L9.22793 24.988L8.39131 24.298C7.77639 24.0973 7.67809 24.6096 7.5526 25.1198C7.26187 25.1072 7.06527 25.1135 6.91677 24.8521L6.32904 25.4397L7.14474 26.1381V26.136Z" fill="#0F0F0F"/>
<path d="M13.3462 12.7199C13.4529 12.6739 14.5802 12.7073 14.873 12.5735L15.2307 12.0089L13.5595 10.3382C13.4299 10.5493 13.3399 10.8484 13.2291 10.8944C12.6664 10.7375 12.8589 11.2561 12.4887 11.4987L13.16 12.3226L12.0452 12.1323L11.8194 12.8641C11.1187 12.6822 11.4345 13.3702 11.2944 13.5667C11.1584 13.757 10.7945 13.5542 10.7589 13.9912L13.9381 17.1696C14.1222 16.9542 14.2288 16.7326 14.1619 16.5799L13.7289 16.3855C13.9569 15.3295 12.9488 14.813 12.0201 14.6248C12.7041 14.1731 12.405 14.2819 12.313 13.9745C12.2565 13.7863 12.3778 13.5019 12.0076 13.2635C12.7522 13.3974 12.9091 12.9143 13.3462 12.7199Z" fill="#0F0F0F"/>
<path d="M33.8246 30.5983C33.9626 30.9078 33.7095 31.3971 33.789 31.5749C33.8957 31.8195 34.2282 32.198 34.5148 32.2565L35 31.7714L33.8267 30.5983H33.8246Z" fill="#0F0F0F"/>
<path d="M31.574 32.5577C31.4151 32.4468 30.9089 32.6601 30.7751 32.2503L29.951 32.9215L30.4216 33.4986L30.4509 33.6806L31.7727 35.0021L32.739 34.036L31.5197 33.8395C31.9254 33.5614 31.9463 32.819 31.574 32.5618V32.5577Z" fill="#0F0F0F"/>
<path d="M26.7802 6.16023C26.6129 5.91349 26.4895 5.65838 26.3598 5.40955L25.542 6.22715C25.9227 6.49898 26.4079 6.63072 26.7781 6.16023H26.7802Z" fill="#0F0F0F"/>
<path d="M25.611 28.7749L26.3828 27.8716L26.0628 29.2935L29.0203 32.2503C29.2252 32.1478 29.4009 32.0349 29.5243 31.8948C29.5787 31.8321 29.4992 31.6418 29.5557 31.5958C29.6373 31.5289 30.8336 31.6376 30.5283 30.9392C30.3735 30.5816 29.8192 30.3934 30.0368 29.8309C30.4488 29.7661 30.1936 30.314 30.4237 30.475C30.4927 30.5231 30.637 30.4603 30.7228 30.5063C30.8315 30.5649 30.8713 30.7489 30.9236 30.7531C30.9738 30.7573 31.0512 30.5942 31.1704 30.5523C31.2624 30.521 31.4172 30.6255 31.4695 30.5837C31.5239 30.5398 31.4444 30.3474 31.5008 30.2847C31.6954 30.063 32.0258 29.8999 32.2413 29.6804L31.7037 29.0217L32.3688 29.166L32.5696 29.4127L32.6052 29.3834L29.997 26.7759C29.8297 27.1648 29.7523 27.6458 29.5348 28.0452C29.3863 27.7545 29.1855 27.765 28.8843 27.7524L28.6898 28.1853C28.0582 28.156 28.0874 27.6416 27.5457 28.294L27.0458 28.0159C27.1253 27.7775 27.0605 27.1042 27.1525 26.9683C27.3868 26.6253 27.8762 26.8052 28.1104 26.4622C28.3823 26.0649 27.8218 26.1653 28.6354 25.7596C28.7191 25.7178 28.7881 25.6718 28.8488 25.6258L27.3324 24.1119C27.0145 24.1161 26.6045 24.0805 26.5418 24.0366C26.3954 23.9321 26.2929 23.677 26.1381 23.5431C26.0754 23.4888 25.8829 23.5682 25.839 23.5118C25.8097 23.4762 25.8725 22.7548 25.2868 23.0016C24.9146 23.1584 24.5004 24.1286 24.9187 24.3984C24.628 24.7852 24.149 24.4527 23.7747 24.5071C23.7266 24.5134 23.3333 24.5991 23.3103 24.6117C23.0112 24.7622 22.7142 25.1616 22.4047 25.3498L22.6599 25.8914L25.5964 28.8272C25.6006 28.8084 25.6027 28.7896 25.6089 28.7729L25.611 28.7749Z" fill="#0F0F0F"/>
<path d="M5.55517 28.3902C5.52798 28.4132 5.18078 28.271 5.00928 28.5616C5.24562 29.1262 5.62419 28.9067 5.9442 29.0342C6.14708 29.1137 6.21192 29.5298 6.72226 28.8105C7.08409 28.3003 6.46081 27.7001 6.19309 27.3217C6.02577 27.4095 5.871 27.6081 5.69949 27.7252C5.73923 27.7838 5.79361 27.8319 5.83335 27.8904C5.50497 28.0075 5.59491 28.3546 5.55517 28.3902Z" fill="#0F0F0F"/>
<path d="M31.9484 31.8404C31.7184 32.1624 32.2266 33.185 32.5445 33.4129C32.8332 33.6199 33.4732 33.1745 33.653 32.9215C34.0923 32.3025 32.9336 30.4645 31.9505 31.8404H31.9484Z" fill="#0F0F0F"/>
<path d="M20.1395 18.7003C20.6206 18.487 20.5976 18.075 20.6645 17.9977C20.744 17.9057 20.8569 17.8241 20.9699 17.7467L20.7231 17.5L21.5994 16.6239L21.497 16.4984C21.6015 16.4817 21.6936 16.4649 21.7793 16.444L22.2227 16.0007L21.7835 15.1685C21.9215 15.0765 22.3252 15.0388 22.3001 15.296C22.2729 15.5553 22.411 15.6181 22.5867 15.6369L22.8565 15.3671L22.8251 14.5934C23.0991 14.744 23.509 14.1731 23.6492 13.9222C23.7161 13.803 23.9357 13.1443 23.8897 13.0398C23.8081 12.8537 23.5404 12.6634 23.4191 12.4627C23.0322 13.2008 22.2018 12.7282 21.9445 12.8411C21.6266 12.9812 21.4279 13.1694 20.9866 13.3472C20.6164 13.4977 20.6562 14.0623 20.2148 14.2505L20.4198 12.9875C20.9113 12.7868 21.3275 13.021 21.7605 12.4438C21.612 12.1887 21.2606 11.9378 21.156 11.7015C21.0786 11.528 21.3903 11.0679 21.0159 10.8567L20.6854 11.1244L20.6666 11.1014L19.7254 12.0424L20.4303 12.1553L19.1732 12.632L19.5455 13.4245C19.4305 13.2719 19.0938 13.0565 18.7905 12.9771L18.3115 13.4559C18.4935 13.642 18.9055 13.7424 19.0519 13.826C18.826 14.1982 18.3701 13.8929 18.2069 13.9661C17.9309 14.0895 17.9288 14.5872 18.1986 14.7963C17.9099 15.0953 17.7845 14.3174 17.5188 14.8025C17.2051 15.3734 18.0354 15.7393 18.3764 16.0237L18.9013 15.3211C19.1732 15.8272 19.1586 16.3144 19.8425 16.4754L18.7131 16.4357C18.2718 16.2161 18.1358 16.214 17.7113 15.8794C17.1361 15.4257 16.5965 15.8439 16.5881 16.5193C17.0796 16.4712 16.7868 16.7263 16.8558 16.8497C16.9478 17.0086 17.2658 17.4185 17.3933 17.5084C17.5795 17.6401 19.123 17.4791 19.0896 17.9078C18.8407 17.9078 18.529 18.1461 18.3931 18.0625C18.3262 18.0207 18.3053 17.914 18.2592 17.8973C17.9915 17.799 17.203 17.8764 17.0629 17.776C16.8265 17.6087 16.998 17.3934 16.9583 17.3118C16.8642 17.1194 16.6132 16.9375 16.4877 16.7347L15.9418 16.9061L15.9104 17.2052L15.6113 17.1738C15.4796 17.7656 15.5402 18.075 16.0045 18.4974C14.8521 18.4138 13.8063 19.0118 15.0215 19.9842C15.0822 20.0323 15.7306 20.1807 15.7536 20.21C15.7891 20.2539 15.6218 20.5069 15.8581 20.6742C15.9836 20.7641 16.6299 20.6742 16.7554 20.7662C16.9918 20.9335 16.8203 21.1489 16.86 21.2304C16.8725 21.2576 16.8893 21.2827 16.9081 21.3099L17.4958 20.7223L17.9309 21.1572C17.9811 20.8603 17.7468 20.5529 17.3494 20.1494L18.5667 20.8018L18.8072 19.9193L18.5081 19.888C18.4433 19.5325 17.5983 19.2795 17.6046 19.1164C17.615 18.8487 18.3994 18.9491 18.6002 18.9909C18.4851 19.3924 18.8742 19.6203 19.1063 19.9486C19.3929 20.2246 19.7756 19.2209 19.6606 18.947C19.4995 18.5623 19.0791 18.6668 18.8909 18.3406C19.3866 17.684 19.579 18.9428 20.1395 18.694V18.7003Z" fill="#0F0F0F"/>
<path d="M26.9434 23.8505L27.0166 23.792L25.7491 22.5248C25.7323 22.5938 25.7344 22.667 25.7721 22.7485C26.0084 23.2838 26.5752 23.5306 26.9434 23.8505Z" fill="#0F0F0F"/>
<path d="M23.0614 19.8378L22.1621 18.9386C22.2583 19.1373 22.3859 19.3422 22.3231 19.5262C22.618 19.5618 22.8565 19.6789 23.0614 19.8378Z" fill="#0F0F0F"/>
<path d="M26.1883 6.77919C25.9478 6.69973 25.5943 6.5889 25.3057 6.46344L21.9801 9.78821C22.0533 9.73593 22.1265 9.68157 22.1955 9.62093C22.1098 10.15 22.8188 10.5933 23.2497 10.4093C23.5425 10.2817 23.6826 9.85303 24.193 10.0517C24.2641 10.495 23.6366 10.3988 23.5488 10.4385C23.0865 10.6518 23.4233 11.4171 23.9734 11.4631C23.4191 11.8855 23.6931 12.5275 24.3979 12.4878C24.3143 11.9002 24.9376 11.7099 24.4377 11.3586C24.8957 11.1516 24.7765 10.6142 25.1802 10.7543C25.2868 10.3653 25.1781 10.1709 24.8894 9.89276L25.519 9.65438C25.2638 9.44946 25.3161 9.25499 25.3621 8.95806C25.7763 9.07516 25.6717 8.85351 25.7072 8.53985C25.588 8.39348 25.5127 8.62768 25.2429 8.64441C24.9501 8.66113 24.6008 8.62977 24.4439 8.33702C25.1844 8.05891 25.8934 8.53358 25.8139 7.49433L26.113 7.52569L26.1883 6.7771V6.77919Z" fill="#0F0F0F"/>
<path d="M21.6308 10.1374L21.2836 10.4845C21.3945 10.4657 21.5012 10.4322 21.5911 10.3862C21.5827 10.288 21.5974 10.2064 21.6308 10.1353V10.1374Z" fill="#0F0F0F"/>
<path d="M9.4308 27.4262L9.23837 26.3493C8.68411 26.159 8.29718 25.9039 7.86213 26.5103C7.62788 26.8365 8.17378 27.2422 8.05456 27.5872C8.52725 27.675 8.99576 27.6583 9.4308 27.4262Z" fill="#0F0F0F"/>
<path d="M3.26701 28.6097L3.16034 29.6574C3.30675 29.9898 3.89657 29.6908 4.09526 30.1299C4.65998 29.8978 4.44246 29.5068 4.56795 29.1952C4.61188 29.0886 4.80848 29.0489 4.81476 28.9945C4.81894 28.9527 4.39854 28.4404 4.27723 28.3358C3.91748 28.5261 3.82336 28.8 3.26701 28.6097Z" fill="#0F0F0F"/>
<path d="M7.40826 30.8116L8.10266 30.1174C7.7952 30.0588 7.50866 30.4729 7.40826 30.8116Z" fill="#0F0F0F"/>
<path d="M28.2317 3.53805C28.2464 3.5506 28.2568 3.56733 28.2506 3.59033C28.1774 3.63424 28.1125 3.67606 28.0519 3.71997L27.5854 4.18628C27.4035 4.5083 27.4641 4.87423 27.7695 5.35518C26.8848 5.87166 26.8743 6.85446 27.8866 7.18066L27.3407 7.35213C27.3847 7.92508 26.9308 7.64069 26.6003 7.95644L27.2717 8.78032C26.5104 9.12116 26.8471 9.81748 26.2218 10.1834L26.4895 10.5138C25.8662 10.5096 26.0398 10.8505 25.6654 11.185L25.8369 11.7308C26.0753 11.7141 26.251 11.7517 26.3974 11.8291L27.7214 10.5054L27.3198 10.5222L27.9117 9.90321L27.4056 8.94551C27.8615 8.95805 27.9828 8.66322 28.2819 8.50639C28.42 8.4332 28.7358 8.69667 28.8592 8.0359C28.9931 8.37883 29.244 8.24501 29.3591 8.31401C29.4574 8.37256 29.5118 8.51893 29.6205 8.60885L31.2498 6.97992C31.162 6.86282 31.1013 6.775 31.1034 6.75618C31.1076 6.71854 31.5071 6.45298 31.3963 6.10586L31.0302 5.99295C31.5155 5.98667 31.7184 3.80989 31.641 3.7137C31.6075 3.67188 31.2478 3.73461 31.2749 3.60078C32.3019 3.12193 31.2498 2.37334 31.2624 2.23951C31.2666 2.20187 31.6096 2.05341 31.5552 1.58919C31.4904 1.02879 31.39 0.698406 31.4925 0.284378L28.2338 3.54223L28.2317 3.53805Z" fill="#0F0F0F"/>
<path d="M32.1827 1.34872L32.5487 1.46164L32.0551 1.86521L32.5926 2.52389C32.1931 2.72463 32.0509 3.17212 32.1053 3.60706C32.1116 3.65724 32.2203 3.70115 32.2392 3.77225C32.304 4.02318 32.0467 4.02945 32.5759 4.18419L32.0823 4.58776L32.35 4.91814L32.0195 5.1858L32.2873 5.51618C31.9066 5.71483 31.8292 6.05359 31.7999 6.42788L35 3.22858L32.0572 0.286469C32.1032 0.637765 32.189 1.00788 32.1827 1.34872Z" fill="#0F0F0F"/>
<path d="M3.77315 34.4459C3.6853 34.3497 3.59955 34.2535 3.53262 34.151L3.13523 34.3371C3.27745 34.0799 2.96163 33.8248 2.96372 33.7914C2.96999 33.7265 3.28582 33.5885 3.37575 33.4547C3.44477 33.3543 3.49497 32.6601 3.31719 32.543C3.05156 32.3674 2.39063 32.6057 2.10618 32.5702L1.93258 33.5342L1.62722 32.8232L1.03531 32.8169L2.82149 34.6027C2.85705 34.6173 2.88842 34.6445 2.91143 34.6926L3.2168 34.9979L3.77106 34.4438L3.77315 34.4459Z" fill="#0F0F0F"/>
<path d="M21.8421 24.9922L21.7919 25.0215L22.1934 25.423L21.8421 24.9922Z" fill="#0F0F0F"/>
<path d="M22.5532 24.6869C22.4653 24.4067 22.8293 24.2144 22.8314 24.1872C22.8355 24.1203 22.5574 23.9237 22.4946 23.7752C22.4465 23.6602 22.6034 23.288 22.5553 23.1772C22.4089 22.8447 21.819 23.1437 21.6203 22.7046L22.413 22.3324L22.8899 23.5891C23.3061 23.2316 23.7621 23.0204 23.9085 22.4851L24.1762 22.8154L24.6698 22.4119L24.4021 22.0815L25.0317 21.8431C24.9543 21.7804 24.9062 21.7176 24.8769 21.6549L23.4965 20.2748C23.6868 20.5048 23.8625 20.7558 24.0591 20.9879C23.7621 21.2827 23.6429 20.6993 23.4233 20.5446C23.2978 20.4547 22.5762 20.4212 22.4277 20.67L22.5406 20.3041C22.6829 20.1912 22.3817 19.8901 22.2875 19.8252C22.0324 19.6517 21.3798 19.8817 21.0765 19.8524C21.0995 20.0469 20.951 20.4839 21.0012 20.601C21.0556 20.7286 21.2209 20.808 21.269 20.9314C21.3024 21.0151 21.2041 21.151 21.2376 21.2304C21.3192 21.4124 21.9383 21.4354 21.6245 21.8745C21.5074 22.0397 21.2062 22.1714 21.0473 22.345L21.0724 21.3664C20.9761 21.0443 20.2567 20.875 20.0559 20.9607C19.5413 21.1782 19.7714 21.6737 19.6647 21.8264C19.5267 22.025 19.2339 22.253 19.2757 22.5143L19.6919 22.9305C20.0245 22.9995 20.378 22.5792 20.4198 22.5833C20.4763 22.5896 20.5139 22.7883 20.6206 22.8301C20.8109 22.9054 21.4635 22.8531 21.5179 22.9221C21.4928 23.5348 20.9741 23.5348 21.6287 24.0659C21.2878 24.3398 20.9134 23.5473 21.0243 23.3236C20.7356 23.0601 20.2922 23.0099 19.9701 23.2065L21.5932 24.8291L22.0617 24.2604L22.5469 24.6869H22.5532Z" fill="#0F0F0F"/>
<path d="M21.8881 11.9294C22.1934 11.8897 23.097 12.6571 23.3689 12.2326C23.6303 11.4234 22.9652 10.3904 22.2123 10.9822L21.9445 10.6518C21.3066 11.0407 21.3903 11.4631 21.8902 11.9294H21.8881Z" fill="#0F0F0F"/>
<path d="M4.93606 31.4996C4.44455 31.1587 3.57028 32.1311 3.75225 32.7375C4.03251 32.773 4.3086 32.9152 4.55122 33.0449C4.81684 32.8149 5.10548 32.6016 5.37529 32.3736C5.09293 32.1227 5.27908 31.7359 4.93606 31.4975V31.4996Z" fill="#0F0F0F"/>
<path d="M5.87934 31.142C5.62627 31.2424 5.54888 32.0579 5.73084 32.4887L6.93976 31.28L6.92721 31.2487L5.87934 31.142Z" fill="#0F0F0F"/>
<path d="M3.94885 34.2681L4.94233 33.2749C4.8273 33.1975 4.69971 33.1264 4.55121 33.047C4.28559 33.277 3.99695 33.4903 3.72714 33.7182C3.90074 33.8708 3.89656 34.0778 3.94885 34.2702V34.2681Z" fill="#0F0F0F"/>
<path d="M3.90909 28.2229C3.95302 28.2585 4.10988 28.1915 4.27511 28.3358C4.53238 28.1999 4.84402 28.3797 4.95487 28.3295C5.17866 28.2313 5.45057 27.8925 5.69528 27.7252C5.60534 27.5935 5.46939 27.4032 5.35854 27.3133C5.23514 27.2129 5.06363 27.3886 4.95487 26.8198C4.95069 26.8198 4.9465 26.8198 4.94232 26.8198L3.72504 28.0368C3.77523 28.1037 3.83589 28.1664 3.90491 28.2229H3.90909Z" fill="#0F0F0F"/>
<path d="M10.1461 11.4861C10.2319 11.4422 10.4996 11.6221 10.692 11.3147C10.3762 10.6832 9.71733 11.0554 9.42243 10.4302L8.19678 11.4297L9.12333 12.356C9.26765 12.3288 9.39942 12.3477 9.45798 12.3226C9.63367 12.2452 9.66295 11.7308 10.1482 11.4861H10.1461Z" fill="#0F0F0F"/>
<path d="M6.00694 9.10025C5.97557 9.11489 5.94629 9.13162 5.91492 9.15044L7.10292 10.3382C7.11965 10.1625 7.13429 9.98686 7.12592 9.97013L6.55911 9.61047C6.73271 9.24872 6.27885 8.98106 6.00694 9.10025Z" fill="#0F0F0F"/>
<path d="M1.22775 30.8179C1.4892 30.7029 1.87404 30.2763 1.77365 29.9877L0.939117 30.8221C1.02905 30.8576 1.12527 30.8639 1.22566 30.8179H1.22775Z" fill="#0F0F0F"/>
<path d="M6.91885 5.34054C7.18029 4.98297 7.00042 4.68604 6.71178 4.41212C6.99623 4.38911 7.18866 4.30129 7.37899 4.15701L6.28093 3.05921C6.04667 3.1554 5.54888 3.40214 5.44221 3.52551L5.27071 2.97975C4.83985 2.84801 4.44873 2.68282 3.94048 2.69327L4.2333 2.04296C4.64742 2.63054 5.18914 2.733 5.83124 2.60963L3.2189 0L1.81128 1.40728C2.19822 1.59756 2.76085 1.22117 2.85915 0.69632L3.26282 1.18981C2.74202 1.1689 2.90098 1.49092 2.85078 1.52438C2.79013 1.56829 2.6249 1.45328 2.55169 1.49301C2.21704 1.6812 2.1041 2.02832 1.6084 1.85058C1.64814 1.77948 1.64814 1.68748 1.62304 1.59338L0.0230071 3.19512C0.0146409 3.20767 0.0083662 3.22231 0 3.23485L4.32742 7.56124L4.34833 7.5696C4.34833 7.5696 4.34833 7.57588 4.34624 7.58006L4.66625 7.89999C4.89423 7.87699 5.18914 7.76616 5.39411 7.67415C5.35855 7.34168 5.58444 7.23085 5.83542 7.03848L5.56771 6.70809L6.24746 6.70182C6.18471 6.27733 7.00878 6.00968 6.81845 5.55174C6.70551 5.2799 6.42524 5.40746 6.23491 5.34054C5.87516 5.21299 5.72666 4.84287 5.48195 4.58358L6.14707 4.72786L6.91676 5.33427L6.91885 5.34054Z" fill="#0F0F0F"/>
<path d="M9.29485 7.24549C9.5312 7.04056 9.73826 6.821 10.0018 6.78127L8.73014 5.50992L8.54817 5.65838L8.41431 5.49319L8.57955 5.35936L8.04411 4.82405L7.79521 4.90142C7.75757 5.24017 7.82031 5.53083 7.48776 5.7002L7.75547 6.03059C7.41874 6.24387 7.27233 6.41325 7.29742 6.81473L7.79731 7.09284L7.00461 7.46505L7.30997 8.176L8.19261 8.41648C8.44569 8.07354 8.91419 8.25337 9.15054 7.91044C9.35342 7.6156 9.0355 7.01965 8.62765 7.1012L8.92047 6.45089L9.29276 7.2434L9.29485 7.24549Z" fill="#0F0F0F"/>
</g>
<defs>
<clipPath id="clip0_208_212">
<rect width="35" height="35" fill="white"/>
</clipPath>
</defs>
</svg>
