<svg width="529" height="84" viewBox="0 0 529 84" fill="none" xmlns="http://www.w3.org/2000/svg">
<g clip-path="url(#clip0_208_24)">
<path d="M485.134 22.9848H495.604L498.527 20.4217C499.015 20.7606 499.945 22.8599 499.945 24.9592C499.945 27.8553 498.28 30.1686 495.115 30.1686C491.463 30.1686 485.255 27.9861 481.521 27.6055C481.033 28.3608 480.505 29.1993 480.183 29.9189C479.207 29.455 478.437 28.5332 478.156 27.439C486.03 15.0457 494.627 15.9674 494.627 7.77855C494.627 5.88743 493.651 3.57409 492.112 3.15781C490.004 3.87143 487.69 7.52878 486.713 11.8105C484.158 11.8105 481.964 10.1692 481.964 7.86181C481.964 3.4492 486.874 0.0059469 492.393 0.0059469C498.561 0.0059469 501.967 3.91306 501.967 8.07589C501.967 16.9427 491.417 17.3174 485.128 22.9907L485.134 22.9848ZM518.042 0C522.912 0 527.823 3.57409 527.823 12.3933C527.823 24.3704 520.437 30.2519 513.781 30.2519C508.83 30.2519 503.799 26.8919 503.799 18.0251C503.799 5.79823 511.673 0 518.042 0ZM514.51 26.9335C517.267 26.2615 520.311 19.3691 520.311 11.9771C520.311 7.05897 518.852 3.78223 517.307 3.32432C513.901 5.17381 511.506 11.5191 511.506 18.1143C511.506 22.4852 512.603 26.434 514.51 26.9395V26.9335ZM488.218 57.8871H498.688L501.611 55.324C502.099 55.663 503.03 57.7623 503.03 59.8615C503.03 62.7577 501.364 65.071 498.2 65.071C494.547 65.071 488.339 62.8885 484.606 62.5079C484.117 63.2631 483.589 64.1017 483.267 64.8212C482.291 64.3574 481.521 63.4356 481.24 62.3414C489.114 49.948 497.711 50.8698 497.711 42.6809C497.711 40.7898 496.735 38.4765 495.196 38.0602C493.088 38.7738 490.774 42.4312 489.797 46.7129C487.242 46.7129 485.048 45.0716 485.048 42.7642C485.048 38.3516 489.958 34.9083 495.477 34.9083C501.645 34.9083 505.051 38.8154 505.051 42.9783C505.051 51.8451 494.501 52.2197 488.212 57.8931L488.218 57.8871ZM526.846 37.0433C522.137 38.8927 517.755 42.7999 516.015 47.8428C517.68 46.7486 519.868 45.8268 522.303 45.8268C526.484 45.8268 529 49.0203 529 53.3497C529 59.5701 523.808 65.2375 516.664 65.2375C510.616 65.2375 507.09 60.4027 507.09 54.6045C507.09 43.0496 517.6 35.4019 526.123 34.5218C526.571 34.9024 526.852 35.8241 526.852 37.0433H526.846ZM514.837 50.8282C514.717 51.8808 514.636 52.8858 514.636 53.8551C514.636 57.679 515.733 60.5752 517.841 62.1749C519.26 61.5445 521.574 58.9398 521.574 54.7353C521.574 51.6667 520.316 49.8588 518.168 49.8588C516.87 49.8588 515.733 50.2811 514.843 50.8222L514.837 50.8282Z" fill="#0F0F0F"/>
<path d="M38.9729 12.5182C34.9814 9.49721 29.089 7.9867 21.3128 7.9867C16.4483 7.9867 12.5487 8.25431 9.60252 8.78358L0 65.2375H10.2113L12.4511 52.0592C22.6337 51.6905 30.4673 49.4901 35.9348 45.4403C41.9478 40.9861 44.9572 34.4564 44.9572 25.8393C44.9572 19.9816 42.9586 15.5393 38.9672 12.5242L38.9729 12.5182ZM28.3136 38.3218C24.9424 40.4389 20.2158 41.6521 14.1626 41.9911L18.2344 18.0429C19.3027 18.0191 20.4111 18.0072 21.577 18.0072C25.7752 18.0072 28.9511 18.7863 31.0991 20.3325C33.247 21.8846 34.3267 24.1563 34.3267 27.1536C34.3267 32.0835 32.3224 35.8063 28.3194 38.3218H28.3136ZM79.7779 23.0978H90.4141C88.4672 33.6714 85.6014 42.8355 81.8109 50.5903C78.0205 58.3451 73.1388 64.9342 67.1659 70.3697C61.1873 75.8052 53.8993 80.3486 45.3018 84.0059L40.6958 74.6634C46.6342 72.2251 51.7973 69.4063 56.1851 66.2128C58.58 64.4704 60.7624 62.5733 62.7724 60.5454C60.0961 56.1209 57.6094 51.1077 55.3236 45.4998C52.6358 38.9165 50.1548 31.4472 47.8748 23.0978L58.511 22.3009C61.4113 34.6645 65.0754 44.6077 69.5091 52.1365C71.68 48.7527 73.5293 45.0359 75.057 40.9861C77.0556 35.6874 78.6292 29.7226 79.7779 23.0978ZM113.817 23.0978H131.409L129.72 32.9994H112.14L110.831 40.7125C110.395 43.2816 110.096 45.2322 109.929 46.5583C109.763 47.8845 109.682 49.2879 109.682 50.7747C109.682 52.5528 110.142 53.8373 111.066 54.6283C111.985 55.4251 113.461 55.8236 115.483 55.8236C117.505 55.8236 119.09 55.6927 120.548 55.4251C122.007 55.1575 123.736 54.6937 125.734 54.0336L127.618 63.4951C125.625 64.1849 123.512 64.7796 121.283 65.2851C119.055 65.7906 116.499 66.0404 113.605 66.0404C108.999 66.0404 105.421 64.9223 102.877 62.6804C100.327 60.4384 99.0576 57.2687 99.0576 53.1594C99.0576 51.9403 99.0863 50.7687 99.1552 49.6388C99.2184 48.5148 99.339 47.2541 99.5228 45.8625C99.7008 44.4709 99.9592 42.7582 100.292 40.7125L101.602 32.9994H92.4989L94.1874 23.0978H103.279L105.438 10.3774H115.994L113.835 23.0978H113.817ZM170.462 26.6719C172.214 29.5858 172.604 33.8795 171.634 39.5529L167.257 65.2375H156.696L161.037 39.7907C161.445 37.406 161.261 35.5982 160.48 34.3612C159.699 33.1302 158.413 32.5117 156.621 32.5117C155.139 32.5117 153.738 32.8983 152.417 33.6654C151.096 34.4326 149.947 35.729 148.96 37.5428C148.179 38.9879 147.547 40.8552 147.064 43.1091L143.297 65.2316H132.735L140.069 22.0154C140.506 19.5772 140.437 17.7931 139.857 16.6692C139.282 15.5452 138.266 14.9803 136.801 14.9803C136.313 14.9803 135.814 15.0159 135.302 15.0814C134.791 15.1468 134.28 15.2598 133.769 15.4203L132.655 5.39979C133.625 5.16192 134.602 4.9954 135.572 4.90025C136.543 4.8051 137.519 4.76348 138.49 4.76348C143.791 4.76348 147.415 6.03611 149.373 8.58139C151.332 11.1267 151.825 15.2062 150.849 20.8261L149.161 30.7277H150.464C151.286 28.0515 152.601 25.9761 154.421 24.5072C156.236 23.0324 158.539 22.3009 161.33 22.3009C165.655 22.3009 168.693 23.7579 170.45 26.6719H170.462ZM198.035 22.3009C190.919 22.3009 185.365 24.8045 181.374 29.8178C177.382 34.8251 175.384 41.8127 175.384 50.7687C175.384 55.5679 176.722 59.3085 179.393 61.9965C182.069 64.6845 185.796 66.0344 190.586 66.0344C197.702 66.0344 203.255 63.5605 207.247 58.6186C211.238 53.6768 213.237 46.7902 213.237 37.965C213.237 33.0351 211.899 29.1934 209.222 26.434C206.546 23.6806 202.819 22.3009 198.029 22.3009H198.035ZM199.855 51.5418C198.075 54.3904 195.6 55.8176 192.429 55.8176C190.431 55.8176 188.88 55.1873 187.766 53.9265C186.652 52.6658 186.095 50.9114 186.095 48.6576C186.095 43.5967 187.002 39.6421 188.823 36.7935C190.638 33.9449 193.159 32.5177 196.386 32.5177C198.333 32.5177 199.844 33.148 200.918 34.4088C201.992 35.6695 202.532 37.4239 202.532 39.6777C202.532 44.7386 201.641 48.6992 199.861 51.5478L199.855 51.5418ZM251.951 26.6719C253.703 29.5858 254.093 33.8795 253.123 39.5529L248.747 65.2375H238.191L242.527 39.7907C242.935 37.406 242.745 35.5982 241.952 34.3612C241.16 33.1302 239.868 32.5117 238.076 32.5117C236.617 32.5117 235.233 32.8983 233.929 33.6654C232.626 34.4326 231.483 35.729 230.512 37.5428C229.542 39.3566 228.812 41.8186 228.324 44.917L228.335 44.8397L224.872 65.2316H214.317L221.495 23.0918H230.593L230.386 30.7217H231.511C232.379 28.0456 233.763 25.9701 235.658 24.5012C237.553 23.0264 239.931 22.2949 242.797 22.2949C247.15 22.2949 250.2 23.7519 251.951 26.6659V26.6719ZM305.799 7.10655C303.835 5.85771 301.434 4.9062 298.603 4.25799C295.771 3.60383 292.521 3.2827 288.851 3.2827C285.181 3.2827 281.758 3.473 278.278 3.8536C274.792 4.2342 271.294 4.77537 267.779 5.48305V5.72687C269.405 6.32751 270.479 7.34443 271.001 8.77763C271.524 10.2168 271.604 11.8581 271.237 13.7017L264.397 55.6333C264.081 57.5363 263.415 59.1895 262.392 60.5989C261.37 62.0143 259.94 63.0431 258.108 63.6913V63.9352C260.468 64.3693 262.932 64.7499 265.499 65.077C268.066 65.404 270.714 65.6598 273.442 65.8501C276.164 66.0404 278.892 66.1355 281.62 66.1355C287.645 66.1355 292.682 65.4992 296.719 64.2206C300.756 62.948 303.886 61.1282 306.115 58.7673C308.343 56.4064 309.693 53.6232 310.164 50.4238C310.635 47.3849 310.284 44.6434 309.101 42.1992C307.924 39.7551 306.138 37.6677 303.754 35.9312C301.371 34.1947 298.672 32.8626 295.656 31.9408C294.496 31.584 293.331 31.3223 292.159 31.1023C292.94 31.0072 293.727 30.8942 294.514 30.7633C297.184 30.3054 299.665 29.5442 301.945 28.4857C304.225 27.4271 306.166 26.0296 307.763 24.2931C309.36 22.5566 310.37 20.4157 310.79 17.8586C311.157 15.5809 310.91 13.5292 310.043 11.7095C309.182 9.88971 307.763 8.36135 305.799 7.1125V7.10655ZM296.168 36.7816C298.838 39.9037 299.757 44.0428 298.919 49.1987C298.448 52.1841 297.517 54.7888 296.127 57.013C294.738 59.2371 292.94 60.9914 290.74 62.2641C288.541 63.5427 285.916 64.179 282.878 64.179C279.679 64.179 277.388 63.4178 275.998 61.9013C274.608 60.3789 274.126 58.3451 274.545 55.7938L278.456 32.1014H283.429C289.247 32.1014 293.491 33.6654 296.168 36.7816ZM299.941 17.9299C299.257 21.8906 297.632 24.8759 295.065 26.886C292.498 28.896 289.063 29.901 284.762 29.901H278.812L281.54 13.3746C281.959 10.7163 282.953 8.69438 284.526 7.30875C286.1 5.92312 288.196 5.23328 290.815 5.23328C293.015 5.23328 294.864 5.77445 296.357 6.86273C297.85 7.95101 298.924 9.44369 299.585 11.3407C300.24 13.2438 300.354 15.4382 299.935 17.9359L299.941 17.9299ZM345.134 24.0374C346.075 25.1792 346.472 26.5113 346.311 28.0278C346.208 29.1696 345.892 30.1449 345.369 30.9596C344.846 31.7743 344.215 32.4285 343.48 32.9161C342.744 33.4038 341.958 33.6476 341.119 33.6476C340.177 33.6476 339.413 33.4335 338.839 32.9934C338.259 32.5593 337.754 32.0598 337.306 31.4889C336.858 30.918 336.427 30.3887 336.008 29.901C335.589 29.4134 334.985 29.1696 334.199 29.1696C333.36 29.1696 332.39 29.5918 331.287 30.4303C330.184 31.2748 329.191 32.2084 328.3 33.2372L322.954 65.2375H313.673L318.704 34.7061C318.968 33.1302 318.899 31.7208 318.508 30.4719C318.118 29.2231 317.262 28.224 315.953 27.4628V27.219C317.63 27.219 319.284 27.0406 320.909 26.6897C322.534 26.3388 324.131 25.8096 325.705 25.1019C327.278 24.3942 328.668 23.5022 329.874 22.4139H330.11L329.242 27.4628C329.139 28.224 328.995 29.0209 328.812 29.8654C328.628 30.7098 328.484 31.3699 328.381 31.8576C329.323 30.2816 330.489 28.7652 331.878 27.2963C333.268 25.8274 334.773 24.638 336.398 23.7103C338.024 22.7885 339.649 22.3247 341.274 22.3247C342.9 22.3247 344.186 22.8956 345.128 24.0314L345.134 24.0374ZM384.038 61.6575C383.435 61.8775 382.768 61.9548 382.033 61.9013C380.931 61.9013 380.224 61.4969 379.908 60.6822C379.592 59.8675 379.569 58.4045 379.828 56.2874L385.336 23.1513H385.18L380.62 28.6046C379.989 27.5163 379.208 26.5291 378.26 25.6312C377.318 24.7391 376.124 24.0314 374.682 23.5141C373.241 22.9967 371.523 22.741 369.53 22.741C366.492 22.741 363.569 23.3654 360.766 24.6142C357.964 25.8631 355.431 27.5996 353.18 29.8237C350.928 32.0479 349.05 34.6288 347.557 37.5606C346.064 40.4925 345.024 43.6384 344.45 47.0043C344.031 49.7221 343.979 52.2435 344.295 54.5747C344.611 56.9059 345.248 58.9695 346.219 60.7595C347.19 62.5495 348.43 63.9352 349.952 64.9105C351.474 65.8857 353.254 66.3734 355.299 66.3734C357.344 66.3734 359.296 65.969 361.157 65.1543C363.018 64.3395 364.735 63.3345 366.309 62.1392C367.882 60.9439 369.22 59.7248 370.317 58.4759H370.398C370.346 58.7495 370.317 58.9635 370.317 59.1241C370.317 59.2847 370.289 59.475 370.237 59.695C369.973 61.1104 369.99 62.3176 370.277 63.3167C370.564 64.3217 371.167 65.0948 372.086 65.636C372.999 66.1771 374.246 66.4507 375.819 66.4507C377.864 66.4507 379.724 65.9333 381.401 64.9045C383.078 63.8757 384.652 62.5436 386.122 60.9141L386.042 60.7536C385.307 61.1342 384.641 61.4315 384.038 61.6515V61.6575ZM374.877 30.9596L370.553 57.1795C369.186 58.1012 367.802 58.8625 366.383 59.4571C364.97 60.0578 363.5 60.3551 361.978 60.3551C360.037 60.3551 358.452 59.6772 357.223 58.3213C355.988 56.9654 355.167 55.0624 354.748 52.6182C354.328 50.174 354.38 47.3017 354.903 43.9892C355.477 40.1892 356.499 36.8411 357.97 33.933C359.434 31.0309 361.18 28.7235 363.196 27.0108C365.212 25.3041 367.348 24.4477 369.605 24.4477C370.811 24.4477 371.845 24.7034 372.712 25.2208C373.579 25.7382 374.217 26.4816 374.642 27.4628C375.061 28.4381 375.141 29.6096 374.877 30.9655V30.9596ZM403.783 31.0369C403.518 32.6663 403.811 33.9985 404.65 35.0273C405.488 36.0561 406.666 36.9541 408.187 37.7153C409.709 38.4765 411.386 39.2377 413.218 39.9929C415.263 40.8077 417.095 41.7829 418.72 42.9248C420.346 44.0666 421.575 45.4462 422.419 47.0757C423.257 48.7051 423.441 50.7687 422.97 53.2605C422.551 55.9187 421.425 58.2261 419.588 60.1827C417.75 62.1392 415.447 63.6557 412.667 64.7439C409.887 65.8322 406.901 66.3734 403.702 66.3734C401.187 66.3734 398.579 66.0641 395.88 65.4397C393.181 64.8153 390.625 63.9054 388.213 62.7101L394.662 50.8222H394.898C394.95 53.5875 395.472 56.0079 396.471 58.0715C397.465 60.1351 398.803 61.6932 400.48 62.7517C402.157 63.8103 404.047 64.3396 406.143 64.3396C408.555 64.3396 410.6 63.727 412.277 62.5079C413.954 61.2888 414.947 59.695 415.263 57.7444C415.527 56.115 415.292 54.771 414.557 53.7124C413.822 52.6539 412.799 51.7559 411.49 51.0244C410.18 50.293 408.71 49.6031 407.085 48.949C405.615 48.3543 404.173 47.6882 402.76 46.9508C401.342 46.2193 400.072 45.3511 398.947 44.3461C397.821 43.341 396.983 42.1219 396.431 40.6828C395.88 39.2436 395.765 37.5487 396.075 35.5922C396.391 33.5822 397.109 31.7803 398.235 30.1746C399.36 28.5749 400.762 27.2011 402.444 26.0653C404.121 24.9235 405.971 24.0433 407.986 23.4189C410.002 22.7945 412.116 22.4793 414.315 22.4793C416.308 22.4793 418.261 22.7231 420.173 23.2108C422.086 23.6984 423.803 24.2693 425.325 24.9235L420.61 35.5922H420.374C420.219 33.5286 419.783 31.6851 419.076 30.0557C418.37 28.4262 417.399 27.1238 416.165 26.1485C414.93 25.1732 413.454 24.6797 411.72 24.6797C409.623 24.6797 407.854 25.2506 406.413 26.3924C404.971 27.5342 404.093 29.0804 403.777 31.0309L403.783 31.0369ZM444.473 60.7595L444.628 60.9201C443.318 62.496 441.808 63.8103 440.108 64.8688C438.402 65.9274 436.559 66.4566 434.566 66.4566C432.992 66.4566 431.723 66.1296 430.752 65.4814C429.782 64.8272 429.15 63.8816 428.863 62.6328C428.576 61.3839 428.558 59.7842 428.823 57.8277L432.757 34.7061C432.963 33.1302 432.889 31.7208 432.521 30.4719C432.154 29.2231 431.315 28.224 430.006 27.4628V27.219C431.631 27.219 433.279 27.0406 434.962 26.6897C436.639 26.3388 438.253 25.7917 439.798 25.0603C441.343 24.3288 442.721 23.4486 443.927 22.4139H444.162L438.5 56.5313C438.184 58.4343 438.184 59.814 438.5 60.6822C438.816 61.5504 439.545 61.9846 440.699 61.9846C441.331 61.9846 441.969 61.8597 442.623 61.6159C443.278 61.372 443.893 61.0866 444.473 60.7595ZM447.264 8.81332C447.683 9.84808 447.786 10.9601 447.58 12.1495C447.367 13.2913 446.936 14.3083 446.282 15.2003C445.627 16.0983 444.852 16.8178 443.961 17.359C443.071 17.9061 442.101 18.1737 441.05 18.1737C439.947 18.1737 438.976 17.8467 438.138 17.1984C437.299 16.5443 436.685 15.7058 436.289 14.677C435.898 13.6481 435.806 12.5361 436.013 11.3407C436.22 10.1989 436.627 9.18202 437.23 8.28999C437.834 7.39201 438.592 6.67243 439.511 6.13126C440.429 5.5901 441.36 5.31654 442.302 5.31654C443.508 5.31654 444.53 5.64362 445.368 6.29183C446.207 6.94599 446.833 7.7845 447.258 8.81332H447.264ZM465.2 60.7595L465.28 60.9201C463.971 62.496 462.489 63.8103 460.835 64.8688C459.186 65.9274 457.337 66.4566 455.293 66.4566C453.667 66.4566 452.369 66.1296 451.399 65.4814C450.428 64.8272 449.796 63.8816 449.509 62.6328C449.222 61.3839 449.234 59.7842 449.55 57.8277L457.021 12.7204C457.337 11.198 457.268 9.78861 456.826 8.48624C456.378 7.18387 455.528 6.20857 454.27 5.55441V5.31059C455.896 5.31059 457.544 5.12029 459.227 4.73969C460.904 4.35909 462.5 3.81792 464.022 3.11024C465.544 2.40256 466.905 1.53431 468.111 0.505493H468.427L459.146 56.5253C458.83 58.4283 458.83 59.808 459.146 60.6763C459.462 61.5445 460.192 61.9786 461.346 61.9786C461.978 61.9786 462.615 61.8716 463.27 61.6515C463.925 61.4375 464.568 61.1342 465.2 60.7536V60.7595Z" fill="#0F0F0F"/>
</g>
<defs>
<clipPath id="clip0_208_24">
<rect width="529" height="84" fill="white"/>
</clipPath>
</defs>
</svg>
