<svg width="715" height="644" viewBox="0 0 715 644" fill="none" xmlns="http://www.w3.org/2000/svg">
<g clip-path="url(#clip0_219_1943)">
<path d="M430.124 91.134C434.364 98.3259 438.544 106.118 439.344 114.58C449.784 116.331 472.324 127.294 474.144 138.666C477.214 157.832 450.714 145.378 440.794 147.399C439.544 161.663 433.764 174.196 421.764 182.298C446.084 187.219 471.084 194.611 495.863 196.732C526.623 199.362 556.803 193.031 587.182 189.41C591.942 189.55 590.972 192.911 591.632 192.981C611.252 189.09 627.672 176.516 645.651 167.964C656.481 162.813 678.101 152.55 689.611 152.62C705.121 152.71 701.671 169.425 690.761 173.956C705.761 189.41 685.331 197.802 671.771 199.783C673.421 201.843 676.761 202.793 678.631 204.684C682.431 208.515 683.121 214.166 678.971 218.007C670.531 225.829 655.261 218.928 644.852 220.358C638.772 221.188 634.122 226.77 628.432 229.02C617.782 233.241 609.722 230.701 599.192 231.701C593.052 232.281 586.362 235.382 579.892 234.822C576.142 244.064 571.542 255.717 566.283 264.139C561.693 271.471 557.313 270.151 549.003 269.721C518.263 268.141 479.534 258.268 449.874 249.556C436.134 245.515 422.044 241.063 408.855 235.882C411.295 232.331 416.225 219.218 414.535 215.747C413.435 213.496 411.425 213.636 410.305 216.067C408.375 220.228 407.405 227.48 405.415 232.451C397.155 253.047 380.705 270.991 365.545 286.795C366.065 287.646 366.635 287.666 367.465 287.896C391.775 294.708 450.524 295.198 464.624 317.634C476.754 336.929 465.284 372.908 458.044 392.983C452.584 408.117 445.524 422.691 439.644 437.655C438.404 440.806 433.304 452.579 433.324 454.89C433.334 456.27 434.234 456.6 435.184 457.26C439.524 460.271 447.984 463.832 453.204 463.362C462.704 462.522 473.994 459.571 483.794 458.251C501.213 455.91 518.673 454.23 536.123 452.069L593.882 449.038C595.562 442.106 598.112 435.185 598.702 428.023C600.742 403.576 586.272 381.21 561.753 376.259C548.123 373.508 551.573 377.399 544.833 385.551C528.273 405.567 500.433 391.633 503.263 364.506C507.643 322.445 562.633 301.089 599.152 299.299C682.281 295.218 737.14 352.613 751.3 430.643C773.54 553.256 693.261 677.538 564.263 683.84C554.853 684.3 532.763 684.03 524.333 680.389C522.043 679.399 520.643 677.498 520.563 674.988C520.383 669.376 527.863 668.566 531.693 666.465C536.243 663.975 546.203 657.243 536.133 654.912C505.633 664.655 474.184 674.978 441.884 676.198C435.104 676.458 415.575 676.178 410.085 673.057C405.895 670.676 406.405 664.205 410.555 662.344C414.965 660.364 423.474 659.183 428.594 657.583C483.224 640.499 571.642 596.527 605.182 549.225C606.352 547.574 614.712 535.561 609.062 535.601C606.982 535.611 599.002 547.044 596.912 549.315C547.533 603.079 452.724 639.338 383.575 659.684C371.415 663.265 358.255 667.316 345.905 669.876C342.126 670.656 333.756 672.997 330.646 671.197C326.586 668.856 326.266 663.615 329.836 660.644C374.675 644.229 417.485 624.754 458.164 599.758C463.864 596.257 480.224 587.064 484.004 583.053C486.934 579.943 485.784 576.732 481.394 576.762C478.964 576.772 472.904 580.323 470.364 581.573C459.324 587.024 448.704 593.526 437.724 599.078C380.255 628.165 319.776 652.592 256.867 667.456C246.067 670.006 212.147 678.509 203.027 675.678C198.127 674.157 197.657 667.566 201.857 664.885C204.707 663.064 218.787 661.644 223.427 660.614C258.607 652.812 298.036 640.649 330.316 624.644C333.736 622.954 347.575 615.812 349.325 613.651C351.025 611.551 350.605 608.17 347.615 607.78C343.306 607.22 327.386 615.902 322.176 618.023C264.767 641.449 202.407 657.353 140.858 665.425C106.229 669.966 65.2792 673.207 30.9896 666.085C24.6197 664.765 2.21002 660.564 9.51992 650.351C12.8299 645.73 23.0597 648.951 27.7397 648.881C46.4994 648.591 67.5492 643.689 85.0989 637.028C94.4088 633.487 116.479 620.493 123.668 619.373C131.938 618.073 129.878 622.554 130.878 627.755C135.408 651.441 184.258 634.277 198.087 628.445C223.397 617.773 257.977 592.506 285.336 594.126C288.646 594.326 292.596 595.487 295.946 595.667C315.826 596.747 336.966 584.994 356.525 580.193C409.575 567.189 463.134 558.927 516.123 543.743C544.993 535.471 612.652 515.336 632.242 494.21C635.592 490.599 640.222 484.568 638.682 479.376C632.162 489.679 619.282 495.81 608.422 500.782C583.652 512.125 554.383 520.767 528.123 528.379C429.654 556.907 327.026 574.131 225.447 587.395C210.247 603.539 169.418 635.547 146.488 628.855C131.218 624.394 144.208 601.308 151.988 594.876C151.118 594.846 150.368 594.356 149.478 594.376C128.428 594.646 66.2192 599.768 50.5494 587.275C44.5595 582.493 44.9295 572.191 49.7694 566.749C57.9893 557.517 89.2389 545.203 101.649 540.362C131.758 528.599 162.918 519.657 194.137 511.275C206.917 487.188 224.567 465.993 237.847 442.156C226.957 442.566 215.957 441.246 205.747 437.395C200.997 435.605 192.078 431.814 194.097 425.402L248.467 387.822C231.557 376.839 216.087 361.215 214.297 339.939C212.627 320.134 218.787 305.07 229.627 289.186C237.197 278.083 251.887 258.558 261.007 249.136C267.977 241.934 282.826 235.352 291.396 227.85C299.296 220.938 303.166 213.906 289.286 221.938L160.358 305.03C159.298 305.44 158.188 305.59 157.078 305.26C154.018 304.35 150.188 288.376 148.758 284.665C147.398 281.124 145.208 277.803 143.938 274.202C128.138 277.963 122.238 292.917 106.769 297.788C99.3887 300.119 94.1588 299.169 87.1889 300.239C80.799 301.219 73.6991 306.741 66.4092 307.571C48.2994 309.641 47.0694 291.407 60.7592 284.445C62.7792 283.415 73.6891 280.404 73.6891 279.153C58.9893 269.921 43.1695 278.623 28.4797 279.514C11.9699 280.514 9.23993 265.48 21.9398 257.798C15.5098 244.374 29.6397 241.674 39.4995 239.633C49.5794 237.543 61.3192 237.122 71.5591 238.003C88.1989 239.433 104.089 246.895 120.818 242.294C119.368 238.223 119.848 236.182 123.848 234.312C129.058 231.881 138.438 229.961 144.558 227.67C179.588 214.566 213.877 198.212 248.707 184.409C259.467 180.147 270.506 176.566 281.146 172.015C260.887 166.654 241.317 166.054 221.147 172.045C193.367 180.307 177.718 196.412 145.588 192.071C123.268 189.06 108.549 171.725 85.3989 170.945C80.979 170.795 75.2391 173.876 71.8291 168.564C64.9292 157.802 81.689 156.061 88.5289 155.691C115.959 154.211 139.708 170.485 167.168 163.663C168.278 163.383 171.338 162.853 171.718 161.763C162.508 160.872 153.358 160.732 144.358 158.342C116.099 150.85 102.739 126.883 70.2491 128.284C63.0392 128.594 54.6393 131.775 48.1694 132.035C41.0395 132.325 40.7995 122.482 45.9694 118.441C51.7494 113.93 77.549 109.689 85.4489 109.289C114.779 107.818 128.088 116.611 153.288 126.613C172.878 134.395 190.068 135.546 209.717 126.783C209.897 125.463 207.987 126.063 207.067 126.033C186.888 125.283 168.638 125.683 150.678 114.78C136.978 106.468 130.858 91.6141 114.469 87.1629C103.259 84.1221 91.4288 85.3825 79.969 85.2124C75.2091 79.981 76.259 72.8092 84.1489 71.5188C102.509 68.508 127.968 71.7389 145.328 78.3406C161.138 84.3522 175.778 95.9152 192.697 98.5959C212.847 101.797 232.607 94.1448 252.697 94.0948C267.427 94.0648 289.796 101.107 302.206 109.129C302.946 109.609 303.566 109.049 303.186 110.819L245.207 130.734L243.927 133.625C259.187 132.635 273.866 127.404 287.986 121.842C297.656 118.031 308.826 113.24 318.146 108.689C319.546 108.008 323.986 106.208 324.386 104.998L319.796 59.6657L260.247 12.8334C255.377 9.36246 251.767 1.1503 260.167 -0.0500183C296.786 10.5328 333.946 19.5251 369.835 32.4185C387.445 43.0013 401.285 58.9155 417.734 71.1987L483.304 51.8636C497.493 57.3151 484.894 64.8671 477.724 69.1682C463.184 77.8905 445.814 84.6223 430.104 91.084L430.124 91.134ZM462.794 138.987C456.124 127.944 443.174 127.884 433.494 123.082C428.064 120.382 428.804 115.15 426.684 110.139C424.694 105.458 422.024 100.536 419.125 96.3653L417.915 95.9953L390.975 107.068C390.965 130.374 373.775 150.58 357.185 165.223C355.475 166.734 347.145 171.895 347.395 173.436L375.405 214.987L389.085 181.928C385.515 179.937 379.495 176.917 379.975 172.125C380.865 163.333 390.695 171.065 394.765 172.465C406.005 176.336 420.434 176.516 424.804 163.323C419.434 164.123 397.095 156.351 405.545 148.999C411.405 143.898 420.454 156.591 427.884 153.86C430.894 150.47 428.584 138.937 432.934 137.636C435.294 136.926 445.604 137.316 448.774 137.456C453.234 137.656 458.254 138.907 462.804 138.997L462.794 138.987ZM690.751 162.563C682.641 161.983 674.781 166.184 667.441 169.255C658.511 172.996 649.211 177.497 640.582 181.908C624.332 190.22 608.882 202.583 589.682 202.813C589.532 210.425 586.222 217.567 584.372 224.849C589.022 224.109 593.762 222.348 598.432 221.818C608.562 220.678 616.072 223.819 625.912 218.898C629.042 217.337 631.932 214.406 635.122 212.906C647.661 207.024 658.351 213.876 670.991 211.156L662.471 206.394C657.351 204.634 641.582 203.344 639.122 201.633C633.572 197.782 641.482 189.53 644.762 186.839C657.531 176.356 678.711 174.946 690.751 162.553V162.563ZM686.191 183.078C683.691 179.547 661.501 187.699 657.561 189.77C655.501 190.86 652.761 192.671 651.241 194.461C659.061 191.911 667.401 191.69 675.381 189.35C676.801 188.93 687.981 185.609 686.201 183.078H686.191ZM141.368 265.88C139.608 263.409 130.968 249.656 128.848 249.426C125.468 250.306 122.128 251.966 118.728 252.736C101.239 256.698 89.2489 249.806 72.5091 247.745C58.3193 245.995 44.3895 246.455 30.8796 251.376L30.4696 253.667C31.7196 255.597 41.4995 252.076 43.9495 251.666C49.4294 250.756 70.6991 247.435 73.3591 252.957C74.9291 261.949 70.3891 259.078 65.0292 259.008C50.0194 258.788 39.0095 261.439 25.2897 267.16C21.1798 270.841 26.7397 270.701 29.9697 270.361C44.9295 268.791 55.0893 264.23 71.8291 265.89C79.169 266.62 77.269 268.231 81.059 271.852C84.4189 275.062 93.8388 275.733 92.4088 281.104C91.3188 285.205 77.149 287.856 72.7891 289.626C68.6191 291.317 63.9092 293.357 60.8292 296.648C64.1992 299.419 69.7891 296.808 73.3691 295.528C77.539 294.027 81.379 291.287 85.8489 290.526C90.0889 289.806 94.2188 290.576 98.3487 290.106C114.849 288.216 123.428 266.33 141.368 265.87V265.88ZM359.455 297.808C354.505 297.318 349.625 295.898 344.665 295.498C334.266 294.658 317.776 294.718 307.366 295.498C304.086 295.748 295.116 296.538 294.816 300.449C295.336 305.27 307.966 301.699 311.166 301.569C326.296 300.969 341.616 302.83 356.575 299.849C357.985 299.569 360.005 299.749 359.445 297.808H359.455ZM639.092 634.407C640.902 636.147 652.721 629.226 654.981 627.895C694.471 604.679 725.67 561.558 735.35 516.786C756.11 420.791 710.361 305.42 596.872 312.212C567.893 313.943 515.853 335.008 515.193 369.647C515.063 376.419 520.253 383.771 527.553 382.761C536.833 381.47 541.913 367.227 549.923 361.005C588.442 331.047 651.741 357.294 672.911 397.335C711.001 469.394 662.981 544.643 605.892 587.935C596.402 595.127 584.002 601.748 575.322 609.03C574.272 609.91 572.762 610.771 572.982 612.381C574.922 614.022 590.512 606.49 593.402 605.079C655.811 574.461 703.861 518.476 708.231 447.118C708.601 441.006 704.971 422.261 716.421 427.552C718.521 428.523 719.301 432.124 719.561 434.294C726.93 497.841 708.631 565.479 663.451 611.301C657.091 617.753 645.252 625.254 640.182 631.336C639.332 632.366 638.842 632.967 639.102 634.427L639.092 634.407ZM411.795 326.776C406.255 325.926 409.115 329.567 408.855 333.098C407.035 357.604 387.245 383.041 372.505 401.656C371.465 402.366 371.835 404.166 372.745 404.156C373.435 404.146 380.365 398.715 381.495 397.725C393.255 387.432 406.625 367.227 411.325 352.323C413.995 343.84 416.585 334.908 411.795 326.766V326.776ZM258.387 392.783C259.847 394.064 286.426 378.83 289.776 376.689C292.926 374.679 296.616 372.068 299.656 369.857C303.256 367.237 319.616 354.333 320.556 351.232C321.816 347.061 319.286 346.911 316.216 348.422C299.886 362.845 277.906 374.148 261.837 388.262C261.217 388.812 257.507 392.013 258.397 392.793L258.387 392.783ZM633.752 455.85C640.222 437.205 640.252 416.77 630.852 399.115C629.512 396.594 622.522 385.431 619.722 385.942C618.382 386.182 618.652 387.982 618.872 389.022C619.592 392.453 625.082 401.496 626.732 406.267C631.992 421.481 632.142 436.795 627.762 452.309L633.762 455.85H633.752ZM441.514 399.625C439.114 397.365 410.435 406.727 406.555 410.058C402.975 426.912 401.245 444.787 396.465 461.331C394.245 469.033 385.045 485.988 386.965 492.54C387.245 493.5 388.295 494.4 389.145 494.91C394.195 497.931 411.525 494.13 418.305 493.8C434.944 493 451.964 495.62 468.524 494.62C471.784 494.42 485.574 493.8 484.004 488.248C483.374 486.008 469.664 484.567 466.434 483.737C456.944 481.297 435.344 472.664 427.314 467.383C420.534 462.932 421.044 459.191 422.744 451.879C424.304 445.187 443.534 401.516 441.514 399.615V399.625ZM305.976 445.677C288.876 461.121 272.406 477.216 256.467 493.84L259.877 497.321C299.446 488.228 339.296 480.256 379.425 473.925C380.535 473.625 380.685 472.674 381.125 471.824C383.225 467.793 386.705 456.11 387.965 451.309C390.955 439.906 392.035 427.993 393.645 416.35C379.565 423.651 365.265 432.194 349.585 435.725C338.006 438.335 326.926 437.805 315.166 437.025C311.866 439.636 309.096 442.887 305.986 445.687L305.976 445.677ZM250.027 423.942C243.237 424.162 236.567 426.462 230.277 428.873C233.367 431.043 243.797 429.573 246.617 427.743C247.737 427.012 249.257 425.122 250.027 423.942ZM302.456 432.304C291.966 429.503 279.026 422.221 267.926 423.982C263.537 424.682 256.647 435.124 253.967 438.895C246.477 449.418 239.987 460.861 232.717 471.594C224.277 484.067 210.947 499.561 204.407 512.435C195.807 529.369 215.537 527.139 225.867 529.019C237.247 531.09 248.697 536.361 260.297 537.141C261.307 537.211 272.796 537.621 271.306 535.641C267.526 533.34 255.197 531.35 252.647 528.839C248.767 525.018 252.417 519.957 258.417 520.757C262.877 521.357 281.276 527.259 284.276 529.889C285.106 530.62 285.746 532.6 286.176 532.63C288.916 531.8 293.936 529.299 291.066 526.118C289.856 524.778 276.426 520.257 273.316 518.796C262.977 513.955 253.207 507.123 242.917 502.082C241.397 501.092 240.637 499.051 240.887 497.281C241.127 495.62 257.667 477.626 260.277 474.815C273.856 460.201 288.446 446.487 302.456 432.284V432.304ZM625.092 474.565C631.832 464.252 616.022 463.072 609.102 462.662C576.382 460.691 542.113 463.972 509.533 466.503L468.114 471.824C468.694 473.165 471.674 473.685 473.034 474.115C479.374 476.095 489.524 476.865 493.074 482.957C496.673 489.139 493.774 496.821 488.124 500.572C476.354 508.374 442.054 504.353 427.424 504.473C415.165 504.573 402.455 507.904 390.275 507.434C379.475 507.013 372.455 497.451 375.405 487.028L273.576 505.263C273.166 507.083 273.896 506.493 274.566 506.953C281.916 512.035 300.676 516.316 303.386 524.458C306.086 532.57 298.026 540.932 290.496 542.313C287.586 542.843 284.456 542.033 281.716 542.653C280.036 543.033 278.236 544.933 276.386 545.684C260.967 551.915 241.317 542.813 225.847 539.692C216.397 537.791 202.187 538.732 195.277 531.51C193.067 529.199 192.967 526.759 191.168 524.428C160.198 533.87 128.828 542.823 98.8187 555.036C89.5089 558.827 78.889 563.248 70.1791 568.189C68.1591 569.34 57.7893 574.691 60.0793 577.402C60.7392 578.182 77.829 580.333 80.249 580.483C139.628 584.144 210.227 575.832 269.276 567.449C355.725 555.176 445.204 537.931 528.893 513.235C545.783 508.254 617.122 486.768 625.082 474.585L625.092 474.565ZM186.958 591.866C183.368 593.106 179.398 592.136 175.988 592.666C171.778 593.326 158.948 609.11 157.168 613.351C156.768 614.302 156.368 615.092 156.578 616.172C160.408 619.853 179.918 601.268 182.798 597.947C183.408 597.247 187.518 592.356 186.958 591.866Z" fill="black"/>
<path d="M20.3798 511.545C32.9896 510.504 51.3794 517.266 61.8192 524.368C65.2892 526.729 70.1191 529.879 68.0091 534.861C65.4192 540.972 55.2993 535.921 50.5994 535.271C47.0794 534.781 42.6795 534.601 39.1195 534.841C27.9897 535.611 10.3699 546.294 2.29001 534.501C-5.83988 522.617 9.34992 512.455 20.3698 511.545H20.3798Z" fill="black"/>
<path d="M53.7793 477.306C64.6691 475.445 80.2489 483.247 88.5388 490.059C93.1988 493.88 109.499 511.525 109.369 517.036C109.279 521.147 105.119 521.857 101.809 520.847C98.4787 519.827 89.5188 512.335 85.3589 509.954C73.399 503.112 66.8891 503.182 55.0793 499.201C42.6194 495 41.5095 479.416 53.7793 477.316V477.306Z" fill="black"/>
<path d="M409.405 113.29C413.624 112.44 421.914 115.53 420.854 120.952C418.804 131.495 403.385 123.372 405.155 116.751C405.495 115.5 408.125 113.54 409.405 113.29Z" fill="black"/>
</g>
<defs>
<clipPath id="clip0_219_1943">
<rect width="755" height="684" fill="white"/>
</clipPath>
</defs>
</svg>
