<svg width="358" height="57" viewBox="0 0 358 57" fill="none" xmlns="http://www.w3.org/2000/svg">
<g clip-path="url(#clip0_306_8789)">
<path d="M328.314 15.5968H335.399L337.377 13.8576C337.708 14.0876 338.337 15.5121 338.337 16.9366C338.337 18.9018 337.21 20.4716 335.069 20.4716C332.597 20.4716 328.395 18.9906 325.869 18.7323C325.539 19.2448 325.181 19.8138 324.963 20.3021C324.303 19.9873 323.782 19.3618 323.591 18.6193C328.92 10.2096 334.738 10.835 334.738 5.2783C334.738 3.99504 334.078 2.42527 333.036 2.1428C331.61 2.62704 330.043 5.10881 329.383 8.0143C327.653 8.0143 326.168 6.90053 326.168 5.3348C326.168 2.34053 329.491 0.0040354 333.226 0.0040354C337.401 0.0040354 339.706 2.65529 339.706 5.48007C339.706 11.4969 332.566 11.7511 328.31 15.6009L328.314 15.5968ZM350.584 0C353.88 0 357.203 2.42527 357.203 8.40977C357.203 16.5371 352.205 20.5281 347.7 20.5281C344.35 20.5281 340.945 18.2481 340.945 12.2313C340.945 3.93451 346.274 0 350.584 0ZM348.194 18.2763C350.06 17.8203 352.119 13.1433 352.119 8.12729C352.119 4.79002 351.132 2.56651 350.087 2.25579C347.782 3.5108 346.161 7.81657 346.161 12.2918C346.161 15.2578 346.904 17.9373 348.194 18.2804V18.2763ZM330.401 39.2806H337.486L339.465 37.5413C339.795 37.7713 340.425 39.1958 340.425 40.6203C340.425 42.5856 339.297 44.1553 337.156 44.1553C334.684 44.1553 330.482 42.6743 327.956 42.4161C327.626 42.9286 327.268 43.4976 327.051 43.9858C326.39 43.6711 325.869 43.0456 325.679 42.3031C331.007 33.8933 336.825 34.5188 336.825 28.9621C336.825 27.6788 336.165 26.109 335.123 25.8265C333.697 26.3108 332.13 28.7926 331.47 31.6981C329.74 31.6981 328.255 30.5843 328.255 29.0186C328.255 26.0243 331.579 23.6878 335.314 23.6878C339.488 23.6878 341.793 26.339 341.793 29.1638C341.793 35.1806 334.653 35.4348 330.397 39.2846L330.401 39.2806ZM356.542 25.1365C353.355 26.3915 350.39 29.0428 349.212 32.4648C350.339 31.7223 351.82 31.0968 353.468 31.0968C356.298 31.0968 358 33.2638 358 36.2016C358 40.4226 354.486 44.2683 349.651 44.2683C345.559 44.2683 343.172 40.9875 343.172 37.053C343.172 29.2122 350.285 24.0227 356.053 23.4255C356.356 23.6838 356.546 24.3092 356.546 25.1365H356.542ZM348.416 34.4906C348.334 35.2048 348.279 35.8868 348.279 36.5446C348.279 39.1393 349.022 41.1046 350.448 42.1901C351.408 41.7623 352.975 39.9948 352.975 37.1418C352.975 35.0595 352.123 33.8328 350.67 33.8328C349.791 33.8328 349.022 34.1193 348.419 34.4865L348.416 34.4906Z" fill="#E8F4BA"/>
<path d="M26.3749 8.49428C23.6736 6.4443 19.6859 5.4193 14.4234 5.4193C11.1314 5.4193 8.49235 5.6009 6.49849 5.96005L0 44.2681H6.91048L8.42627 35.3256C15.3173 35.0754 20.6187 33.5824 24.3188 30.8342C28.3881 27.8117 30.4248 23.3809 30.4248 17.5336C30.4248 13.5587 29.0722 10.5443 26.371 8.49831L26.3749 8.49428ZM19.1612 26.0039C16.8798 27.4405 13.681 28.2637 9.5845 28.4937L12.3401 12.2432C13.0631 12.227 13.8132 12.219 14.6022 12.219C17.4433 12.219 19.5926 12.7476 21.0462 13.7968C22.4999 14.85 23.2306 16.3916 23.2306 18.4254C23.2306 21.7707 21.8741 24.2969 19.1651 26.0039H19.1612ZM53.9896 15.6733H61.1876C59.8701 22.8482 57.9306 29.0667 55.3654 34.3289C52.8002 39.5911 49.4966 44.0623 45.4545 47.7506C41.4084 51.439 36.4763 54.522 30.658 57.0038L27.5409 50.6642C31.5597 49.0097 35.0538 47.0969 38.0232 44.9299C39.6439 43.7475 41.1208 42.4602 42.4812 41.0842C40.67 38.0818 38.9871 34.68 37.4402 30.8746C35.6212 26.4074 33.9422 21.339 32.3992 15.6733L39.5973 15.1325C41.56 23.5221 44.0397 30.2693 47.0402 35.3781C48.5094 33.082 49.7609 30.5598 50.7947 27.8117C52.1473 24.2162 53.2122 20.1687 53.9896 15.6733ZM77.0258 15.6733H88.9306L87.7879 22.3922H75.8909L75.0047 27.6261C74.7093 29.3694 74.5072 30.693 74.3945 31.5929C74.2818 32.4928 74.2274 33.4451 74.2274 34.454C74.2274 35.6606 74.5383 36.5322 75.1641 37.0689C75.7859 37.6097 76.7848 37.8801 78.1529 37.8801C79.521 37.8801 80.5937 37.7913 81.5809 37.6097C82.5681 37.4281 83.738 37.1133 85.0906 36.6654L86.3654 43.0857C85.0167 43.5538 83.5864 43.9574 82.0784 44.3004C80.5704 44.6434 78.8408 44.8129 76.882 44.8129C73.7649 44.8129 71.3435 44.0542 69.6217 42.5329C67.896 41.0115 67.0371 38.8607 67.0371 36.0722C67.0371 35.2449 67.0565 34.45 67.1031 33.6832C67.1459 32.9205 67.2275 32.065 67.3519 31.1208C67.4724 30.1765 67.6473 29.0143 67.8727 27.6261L68.7589 22.3922H62.5985L63.7412 15.6733H69.8938L71.3551 7.04153H78.4988L77.0374 15.6733H77.0258ZM115.36 18.0985C116.545 20.0759 116.81 22.9894 116.153 26.8392L113.191 44.2681H106.044L108.982 27.0006C109.258 25.3824 109.133 24.1557 108.605 23.3163C108.076 22.481 107.206 22.0613 105.993 22.0613C104.99 22.0613 104.042 22.3236 103.148 22.8442C102.254 23.3647 101.477 24.2444 100.808 25.4752C100.28 26.4558 99.8521 27.723 99.5256 29.2524L96.976 44.264H89.8284L94.7917 14.9388C95.0871 13.2843 95.0404 12.0737 94.6479 11.311C94.2592 10.5483 93.5713 10.1649 92.5802 10.1649C92.2498 10.1649 91.9117 10.1891 91.5658 10.2335C91.2198 10.2779 90.8739 10.3546 90.528 10.4636L89.774 3.66391C90.4309 3.50249 91.0916 3.3895 91.7484 3.32493C92.4053 3.26037 93.066 3.23212 93.7229 3.23212C97.3102 3.23212 99.7627 4.09569 101.088 5.82284C102.413 7.54999 102.748 10.3183 102.087 14.1317L100.944 20.8507H101.827C102.382 19.0347 103.272 17.6264 104.504 16.6296C105.733 15.6289 107.291 15.1325 109.18 15.1325C112.107 15.1325 114.163 16.1212 115.352 18.0985H115.36ZM134.02 15.1325C129.204 15.1325 125.446 16.8314 122.745 20.2333C120.043 23.6311 118.691 28.3727 118.691 34.45C118.691 37.7065 119.596 40.2448 121.404 42.0688C123.215 43.8928 125.737 44.8088 128.979 44.8088C133.794 44.8088 137.553 43.1301 140.254 39.7767C142.955 36.4233 144.308 31.7503 144.308 25.7617C144.308 22.4164 143.402 19.8095 141.591 17.9371C139.78 16.0687 137.257 15.1325 134.016 15.1325H134.02ZM135.252 34.9746C134.047 36.9075 132.372 37.876 130.226 37.876C128.874 37.876 127.824 37.4483 127.07 36.5928C126.316 35.7373 125.939 34.5468 125.939 33.0174C125.939 29.5833 126.553 26.8997 127.786 24.9668C129.014 23.0338 130.72 22.0653 132.904 22.0653C134.222 22.0653 135.244 22.4931 135.971 23.3486C136.698 24.2041 137.063 25.3945 137.063 26.9239C137.063 30.3581 136.461 33.0456 135.256 34.9786L135.252 34.9746ZM170.508 18.0985C171.693 20.0759 171.957 22.9894 171.301 26.8392L168.339 44.2681H161.195L164.13 27.0006C164.406 25.3824 164.277 24.1557 163.741 23.3163C163.205 22.481 162.33 22.0613 161.117 22.0613C160.13 22.0613 159.194 22.3236 158.311 22.8442C157.429 23.3647 156.656 24.2444 155.999 25.4752C155.342 26.706 154.848 28.3767 154.518 30.4791L154.526 30.4267L152.182 44.264H145.038L149.897 15.6692H156.053L155.913 20.8466H156.675C157.262 19.0307 158.199 17.6224 159.481 16.6256C160.764 15.6248 162.373 15.1285 164.312 15.1285C167.258 15.1285 169.322 16.1171 170.508 18.0945V18.0985ZM206.949 4.82207C205.62 3.97463 203.995 3.32897 202.079 2.88911C200.163 2.44522 197.963 2.2273 195.479 2.2273C192.996 2.2273 190.679 2.35644 188.324 2.6147C185.965 2.87297 183.598 3.24019 181.219 3.7204V3.88585C182.319 4.29343 183.046 4.98348 183.4 5.95601C183.753 6.93258 183.808 8.04635 183.559 9.29732L178.93 37.7509C178.716 39.0422 178.265 40.1641 177.574 41.1205C176.882 42.0809 175.914 42.779 174.674 43.2189V43.3843C176.272 43.6789 177.939 43.9372 179.676 44.1591C181.414 44.3811 183.205 44.5546 185.052 44.6837C186.894 44.8129 188.74 44.8774 190.586 44.8774C194.663 44.8774 198.072 44.4456 200.804 43.578C203.536 42.7145 205.655 41.4796 207.163 39.8776C208.671 38.2755 209.584 36.387 209.903 34.2159C210.222 32.1538 209.984 30.2935 209.184 28.635C208.387 26.9764 207.178 25.56 205.565 24.3816C203.952 23.2033 202.126 22.2994 200.085 21.6739C199.3 21.4318 198.511 21.2542 197.718 21.1049C198.247 21.0403 198.779 20.9637 199.312 20.8749C201.119 20.5642 202.798 20.0476 204.341 19.3293C205.884 18.611 207.198 17.6627 208.278 16.4844C209.359 15.306 210.043 13.8533 210.326 12.1181C210.575 10.5725 210.408 9.1803 209.821 7.94546C209.238 6.71063 208.278 5.67353 206.949 4.8261V4.82207ZM200.431 24.9587C202.238 27.0773 202.86 29.8859 202.293 33.3846C201.974 35.4104 201.344 37.1779 200.404 38.6871C199.463 40.1964 198.247 41.3868 196.758 42.2504C195.27 43.118 193.493 43.5498 191.437 43.5498C189.272 43.5498 187.722 43.0333 186.781 42.0042C185.841 40.9712 185.514 39.5911 185.798 37.8599L188.445 21.7828H191.81C195.748 21.7828 198.62 22.8442 200.431 24.9587ZM202.985 12.1665C202.522 14.8541 201.422 16.8798 199.685 18.2438C197.947 19.6078 195.623 20.2897 192.712 20.2897H188.686L190.532 9.07538C190.815 7.27155 191.488 5.89952 192.553 4.95927C193.618 4.01902 195.036 3.55092 196.809 3.55092C198.297 3.55092 199.549 3.91814 200.559 4.65661C201.57 5.39509 202.297 6.40798 202.744 7.69527C203.187 8.9866 203.264 10.4757 202.981 12.1705L202.985 12.1665ZM233.569 16.3108C234.206 17.0856 234.474 17.9896 234.365 19.0186C234.295 19.7934 234.082 20.4552 233.728 21.008C233.374 21.5609 232.947 22.0048 232.449 22.3357C231.952 22.6666 231.419 22.8321 230.852 22.8321C230.214 22.8321 229.698 22.6868 229.309 22.3882C228.916 22.0936 228.574 21.7546 228.271 21.3672C227.968 20.9798 227.676 20.6207 227.393 20.2897C227.109 19.9588 226.701 19.7934 226.168 19.7934C225.601 19.7934 224.944 20.0799 224.198 20.6489C223.452 21.2219 222.779 21.8555 222.177 22.5536L218.558 44.2681H212.278L215.682 23.5504C215.861 22.481 215.814 21.5246 215.55 20.6771C215.286 19.8297 214.707 19.1518 213.821 18.6352V18.4698C214.955 18.4698 216.075 18.3487 217.175 18.1106C218.275 17.8725 219.355 17.5134 220.42 17.0332C221.485 16.553 222.426 15.9477 223.242 15.2092H223.401L222.814 18.6352C222.744 19.1518 222.647 19.6925 222.523 20.2655C222.398 20.8386 222.301 21.2865 222.231 21.6174C222.869 20.548 223.658 19.519 224.598 18.5222C225.539 17.5255 226.557 16.7184 227.657 16.0889C228.757 15.4634 229.857 15.1487 230.957 15.1487C232.057 15.1487 232.927 15.536 233.565 16.3068L233.569 16.3108ZM259.897 41.8388C259.489 41.9881 259.038 42.0405 258.54 42.0042C257.794 42.0042 257.316 41.7298 257.102 41.177C256.889 40.6241 256.873 39.6314 257.048 38.1948L260.775 15.7096H260.67L257.584 19.41C257.157 18.6716 256.628 18.0017 255.987 17.3923C255.35 16.787 254.541 16.3068 253.566 15.9557C252.59 15.6047 251.428 15.4311 250.079 15.4311C248.023 15.4311 246.045 15.8548 244.148 16.7023C242.251 17.5497 240.537 18.7281 239.014 20.2373C237.49 21.7465 236.219 23.4979 235.209 25.4873C234.198 27.4768 233.495 29.6115 233.106 31.8956C232.822 33.7397 232.787 35.4507 233.001 37.0326C233.215 38.6145 233.646 40.0148 234.303 41.2294C234.96 42.4441 235.8 43.3843 236.83 44.0461C237.86 44.7079 239.064 45.0388 240.448 45.0388C241.832 45.0388 243.153 44.7644 244.412 44.2116C245.672 43.6587 246.834 42.9768 247.899 42.1656C248.964 41.3545 249.869 40.5273 250.612 39.6798H250.666C250.631 39.8655 250.612 40.0107 250.612 40.1197C250.612 40.2286 250.592 40.3578 250.557 40.5071C250.378 41.4675 250.39 42.2867 250.584 42.9647C250.779 43.6466 251.187 44.1712 251.809 44.5385C252.427 44.9057 253.27 45.0913 254.335 45.0913C255.719 45.0913 256.978 44.7402 258.113 44.0421C259.248 43.344 260.313 42.44 261.308 41.3344L261.253 41.2254C260.756 41.4837 260.305 41.6854 259.897 41.8347V41.8388ZM253.698 21.008L250.771 38.8001C249.846 39.4256 248.909 39.9421 247.949 40.3457C246.993 40.7533 245.998 40.955 244.968 40.955C243.655 40.955 242.582 40.495 241.75 39.5749C240.914 38.6548 240.359 37.3635 240.075 35.705C239.791 34.0464 239.826 32.0973 240.18 29.8496C240.569 27.271 241.26 24.9991 242.255 23.0257C243.246 21.0565 244.428 19.4907 245.792 18.3285C247.156 17.1704 248.602 16.5893 250.13 16.5893C250.946 16.5893 251.646 16.7628 252.232 17.1139C252.819 17.465 253.251 17.9694 253.538 18.6352C253.822 19.297 253.876 20.092 253.698 21.0121V21.008ZM273.259 21.0605C273.08 22.1662 273.279 23.0701 273.846 23.7683C274.414 24.4664 275.21 25.0757 276.24 25.5923C277.27 26.1088 278.405 26.6253 279.645 27.1378C281.029 27.6907 282.268 28.3525 283.368 29.1273C284.468 29.9021 285.3 30.8383 285.871 31.944C286.439 33.0497 286.563 34.45 286.245 36.1408C285.961 37.9446 285.199 39.5103 283.955 40.838C282.712 42.1656 281.153 43.1947 279.272 43.9331C277.391 44.6716 275.37 45.0388 273.205 45.0388C271.502 45.0388 269.738 44.829 267.911 44.4053C266.084 43.9816 264.355 43.3642 262.723 42.553L267.087 34.4863H267.247C267.282 36.3627 267.635 38.0051 268.312 39.4054C268.984 40.8057 269.889 41.863 271.024 42.5813C272.159 43.2996 273.438 43.6587 274.857 43.6587C276.489 43.6587 277.873 43.2431 279.008 42.4158C280.142 41.5886 280.815 40.5071 281.029 39.1835C281.207 38.0778 281.048 37.1658 280.551 36.4475C280.053 35.7292 279.361 35.1198 278.475 34.6235C277.589 34.1271 276.594 33.659 275.494 33.2151C274.499 32.8116 273.523 32.3596 272.567 31.8592C271.607 31.3629 270.748 30.7737 269.987 30.0917C269.225 29.4097 268.657 28.5825 268.284 27.6059C267.911 26.6294 267.833 25.4793 268.043 24.1516C268.257 22.7877 268.743 21.5649 269.505 20.4754C270.266 19.3899 271.215 18.4577 272.354 17.6869C273.489 16.9121 274.74 16.3149 276.104 15.8912C277.468 15.4674 278.899 15.2536 280.387 15.2536C281.736 15.2536 283.057 15.419 284.352 15.7499C285.646 16.0808 286.808 16.4682 287.838 16.9121L284.647 24.1516H284.488C284.383 22.7513 284.087 21.5004 283.609 20.3947C283.131 19.289 282.474 18.4052 281.639 17.7434C280.803 17.0816 279.804 16.7467 278.631 16.7467C277.212 16.7467 276.015 17.1341 275.039 17.9089C274.064 18.6837 273.469 19.7329 273.255 21.0565L273.259 21.0605ZM300.796 41.2294L300.901 41.3384C300.015 42.4078 298.993 43.2996 297.842 44.0179C296.688 44.7362 295.44 45.0953 294.092 45.0953C293.027 45.0953 292.168 44.8734 291.511 44.4335C290.854 43.9896 290.427 43.348 290.232 42.5006C290.038 41.6531 290.026 40.5676 290.205 39.24L292.867 23.5504C293.007 22.481 292.957 21.5246 292.708 20.6771C292.459 19.8297 291.892 19.1518 291.006 18.6352V18.4698C292.106 18.4698 293.221 18.3487 294.36 18.1106C295.495 17.8725 296.587 17.5013 297.632 17.0049C298.678 16.5086 299.611 15.9113 300.427 15.2092H300.586L296.754 38.3603C296.54 39.6516 296.54 40.5878 296.754 41.177C296.968 41.7661 297.461 42.0607 298.243 42.0607C298.67 42.0607 299.102 41.976 299.545 41.8105C299.988 41.6451 300.404 41.4514 300.796 41.2294ZM302.685 5.98022C302.969 6.68238 303.039 7.437 302.899 8.24408C302.755 9.01888 302.464 9.70893 302.02 10.3142C301.577 10.9236 301.053 11.4119 300.45 11.7791C299.848 12.1503 299.191 12.3319 298.48 12.3319C297.734 12.3319 297.077 12.11 296.509 11.6701C295.942 11.2262 295.526 10.6573 295.258 9.95913C294.993 9.261 294.931 8.50638 295.071 7.69527C295.211 6.92047 295.487 6.23042 295.895 5.62511C296.303 5.01576 296.816 4.52748 297.438 4.16026C298.06 3.79304 298.69 3.60741 299.327 3.60741C300.143 3.60741 300.835 3.82936 301.402 4.26922C301.97 4.71311 302.394 5.2821 302.681 5.98022H302.685ZM314.823 41.2294L314.878 41.3384C313.991 42.4078 312.989 43.2996 311.869 44.0179C310.754 44.7362 309.502 45.0953 308.119 45.0953C307.019 45.0953 306.14 44.8734 305.483 44.4335C304.827 43.9896 304.399 43.348 304.205 42.5006C304.01 41.6531 304.018 40.5676 304.232 39.24L309.289 8.63148C309.502 7.59842 309.456 6.64203 309.156 5.75828C308.853 4.87453 308.278 4.21272 307.427 3.76883V3.60338C308.527 3.60338 309.642 3.47424 310.781 3.21598C311.916 2.95771 312.996 2.59049 314.026 2.11028C315.056 1.63007 315.977 1.0409 316.794 0.342773H317.007L310.727 38.3562C310.513 39.6476 310.513 40.5838 310.727 41.1729C310.94 41.7621 311.434 42.0567 312.215 42.0567C312.643 42.0567 313.074 41.9841 313.517 41.8347C313.96 41.6895 314.396 41.4837 314.823 41.2254V41.2294Z" fill="#E8F4BA"/>
</g>
<defs>
<clipPath id="clip0_306_8789">
<rect width="358" height="57" fill="white"/>
</clipPath>
</defs>
</svg>
